Coordinates
version=1
nRows=20
nColumns=33
inDegrees=yes

Units are S.I. units (second, meters, Newtons, ...)
Angles are in degrees.

endheader
time	ground_thorax_rot_x	ground_thorax_rot_y	ground_thorax_rot_z	ground_thorax_tx	ground_thorax_ty	ground_thorax_tz	clav_prot_r	clav_elev_r	scapula_abduction_r	scapula_elevation_r	scapula_upward_rot_r	scapula_winging_r	shoulder_elv_r	plane_of_elev_r	axial_rot_r	elbow_flexion_r	pro_sup_r	wrist_flex_r	wrist_dev_r	clav_prot_l	clav_elev_l	scapula_abduction_l	scapula_elevation_l	scapula_upward_rot_l	scapula_winging_l	shoulder_elv_l	plane_of_elev_l	axial_rot_l	elbow_flexion_l	pro_sup_l	wrist_flex_l	wrist_dev_l	
9.1100	-35.561532	7.962959	-1.316185	93.496812	768.214679	-41.760808	9.107891	-45.000000	44.999989	-45.000000	6.036323	-2608.818054	-471.521226	161.778157	22.176850	361.207821	169.018642	11.205458	12.259674	19.296284	25.333170	-44.999973	-43.223263	-45.000000	-4253.905278	-1340.720799	21.744603	-180.000000	-6.505291	110.537719	9.768065	-6.928046	
9.1200	-35.624655	8.078599	-1.288221	92.855094	767.803198	-41.708587	9.171853	-45.000000	44.999980	-45.000000	5.946913	-2608.891283	-471.460044	161.795693	22.360865	361.285326	168.915456	11.246248	12.279592	19.250416	25.283928	-44.999951	-43.176225	-45.000000	-4253.837762	-1340.831954	21.691202	-180.000000	-6.360024	110.989498	9.761412	-6.986661	
9.1300	-35.699507	8.184972	-1.250459	92.153132	767.401545	-41.659590	9.266324	-45.000000	44.999964	-45.000000	5.899941	-2608.987441	-471.422465	161.824335	22.540398	361.367126	168.813272	11.248059	12.281232	19.196884	25.219097	-44.999913	-43.108371	-45.000000	-4253.707301	-1340.930118	21.665517	-180.000000	-6.240430	111.483241	9.756722	-6.976992	
9.1400	-35.790934	8.328904	-1.275632	91.318848	767.021210	-41.614469	9.305822	-45.000000	44.999935	-45.000000	5.883655	-2609.069696	-471.389106	161.853722	22.741561	361.418110	168.697469	11.271368	12.296943	19.186779	25.226428	-44.999844	-43.111948	-45.000000	-4253.629808	-1341.023827	21.618139	-180.000000	-6.109506	112.050682	9.761095	-7.039294	
9.1500	-35.893431	8.496213	-1.330906	90.345699	766.662503	-41.575547	9.317643	-45.000000	44.999883	-45.000000	5.900158	-2609.163124	-471.364277	161.884551	22.959313	361.452560	168.582082	11.296125	12.317471	19.199410	25.261338	-44.999720	-43.143064	-45.000000	-4253.557772	-1341.110933	21.571174	-180.000000	-5.982935	112.700729	9.775339	-7.125501	
9.1600	-36.006624	8.683479	-1.415749	89.217458	766.326509	-41.544251	9.314711	-45.000000	44.999791	-45.000000	5.939674	-2609.257955	-471.344470	161.924284	23.196014	361.457705	168.479801	11.316156	12.334603	19.224908	25.325852	-44.999499	-43.205410	-45.000000	-4253.495899	-1341.197765	21.522699	-180.000000	-5.858508	113.451080	9.795300	-7.225047	
9.1700	-36.128805	8.875755	-1.504347	87.935337	766.010667	-41.521176	9.301070	-45.000000	44.999625	-45.000000	5.974496	-2609.364492	-471.330212	161.965616	23.447770	361.450514	168.405905	11.340051	12.354742	19.254301	25.394455	-44.999102	-43.277525	-45.000000	-4253.436202	-1341.288387	21.468261	-180.000000	-5.727887	114.309645	9.822786	-7.343951	
9.1800	-36.257975	9.056495	-1.583257	86.507413	765.710416	-41.505618	9.307124	-45.000000	44.999329	-45.000000	5.986900	-2609.481267	-471.323075	162.004021	23.707114	361.431164	168.377162	11.353754	12.369848	19.272940	25.460342	-44.998391	-43.342602	-45.000000	-4253.363069	-1341.384654	21.410155	-180.000000	-5.584956	115.295651	9.852461	-7.448251	
9.1900	-36.389099	9.217043	-1.636005	84.940487	765.420997	-41.495529	9.321791	-45.000000	44.998797	-45.000000	5.958321	-2609.621741	-471.319737	162.023040	23.965978	361.418885	168.405554	11.370603	12.388233	19.281829	25.511061	-44.997118	-43.385739	-45.000000	-4253.277507	-1341.489534	21.340092	-180.000000	-5.423374	116.416802	9.887650	-7.558300	
9.2000	-36.521364	9.343972	-1.656382	83.239722	765.137829	-41.488271	9.364134	-45.000000	44.997845	-45.000000	5.879207	-2609.767219	-471.312492	162.037853	24.216521	361.404231	168.502124	11.388424	12.403175	19.269731	25.553379	-44.994837	-43.412295	-45.000000	-4253.182193	-1341.615727	21.251682	-180.000000	-5.244534	117.692494	9.926812	-7.665686	
9.2100	-36.653848	9.433080	-1.630781	81.409261	764.857072	-41.481329	9.428425	-45.000000	44.996142	-45.000000	5.736404	-2609.917311	-471.294104	162.053432	24.450259	361.394264	168.669635	11.419391	12.419127	19.242359	25.577430	-44.990753	-43.422318	-45.000000	-4253.078486	-1341.769101	21.141753	-180.000000	-5.050807	119.145656	9.977127	-7.788372	
9.2200	-36.780290	9.486961	-1.563810	79.452077	764.575817	-41.472896	9.521707	-45.000000	44.993085	-45.000000	5.535701	-2610.067179	-471.258420	162.074616	24.667754	361.378915	168.909752	11.458594	12.434697	19.193771	25.584477	-44.983432	-43.418447	-45.000000	-4252.964144	-1341.952266	21.018861	-180.000000	-4.847715	120.794867	10.036362	-7.921138	
9.2300	-36.895801	9.511469	-1.456628	77.370619	764.292679	-41.462439	9.632061	-45.000000	44.987624	-45.000000	5.282345	-2610.225972	-471.205029	162.096842	24.871572	361.361742	169.219416	11.507469	12.451416	19.129218	25.569802	-44.970336	-43.398508	-45.000000	-4252.838111	-1342.159232	20.887990	-180.000000	-4.642366	122.640435	10.103561	-8.076684	
9.2400	-36.999875	9.503271	-1.313020	75.166648	764.008082	-41.451261	9.768701	-45.000000	44.977802	-45.000000	4.966979	-2610.380169	-471.133609	162.128095	25.073916	361.333356	169.595640	11.566068	12.471800	19.041935	25.545056	-44.946822	-43.364446	-45.000000	-4252.704597	-1342.382821	20.744802	-180.000000	-4.434182	124.678569	10.171888	-8.264733	
9.2500	-37.094976	9.453106	-1.124171	72.841610	763.725786	-41.443592	9.922050	-45.000000	44.960316	-45.000000	4.579811	-2610.542321	-471.056254	162.158385	25.277567	361.303751	170.031572	11.632467	12.500505	18.931095	25.504847	-44.904858	-43.317636	-45.000000	-4252.560204	-1342.616998	20.593223	-180.000000	-4.216202	126.894014	10.238060	-8.481281	
9.2600	-37.177185	9.344408	-0.878457	70.394977	763.453915	-41.448486	10.115321	-45.000000	44.928695	-45.000000	4.092106	-2610.719292	-470.978384	162.173539	25.498659	361.274147	170.526396	11.702585	12.543068	18.786776	25.457501	-44.829251	-43.248673	-45.000000	-4252.393984	-1342.847709	20.436855	-180.000000	-3.987980	129.273689	10.295151	-8.718542	
9.2700	-37.245367	9.136365	-0.537153	67.823378	763.207028	-41.481357	10.359177	-45.000000	44.872885	-45.000000	3.449571	-2610.910304	-470.894816	162.175507	25.746141	361.245062	171.085394	11.784176	12.601703	18.589243	25.402673	-44.695037	-43.164473	-45.000000	-4252.212687	-1343.085811	20.269376	-180.000000	-3.747819	131.808170	10.341866	-8.979161	
9.2800	-37.299376	8.755303	-0.027006	65.114289	763.016106	-41.575811	10.705911	-45.000000	44.770588	-45.000000	2.526071	-2611.095189	-470.794952	162.175520	26.044110	361.202704	171.728827	11.893502	12.684277	18.303779	25.352326	-44.451220	-43.077689	-45.000000	-4252.018488	-1343.336742	20.083975	-180.000000	-3.484168	134.550256	10.379104	-9.256372	
9.2900	-37.343160	8.102047	0.752748	62.252492	762.937825	-41.784414	11.188183	-45.000000	44.593837	-45.000000	1.182782	-2611.263774	-470.669841	162.181720	26.398523	361.143792	172.465442	12.058739	12.800869	17.881848	25.303980	-44.023966	-43.011076	-45.000000	-4251.820323	-1343.619368	19.879280	-180.000000	-3.182432	137.559631	10.410658	-9.545712	
9.3000	-37.371996	6.935021	2.053956	59.186181	763.109588	-42.244959	11.946863	-45.000000	44.259102	-45.000000	-0.965787	-2611.384365	-470.498117	162.198556	26.867388	361.048236	173.330526	12.361618	12.984347	17.218029	25.292475	-43.247500	-42.997121	-45.000000	-4251.611598	-1343.955860	19.634952	-180.000000	-2.805252	141.102067	10.436869	-9.864706	
